<?xml version="1.0" encoding="UTF-8" standalone="no"?>
<!-- Created with Inkscape (http://www.inkscape.org/) -->

<svg
   xmlns:dc="http://purl.org/dc/elements/1.1/"
   xmlns:cc="http://creativecommons.org/ns#"
   xmlns:rdf="http://www.w3.org/1999/02/22-rdf-syntax-ns#"
   xmlns:svg="http://www.w3.org/2000/svg"
   xmlns="http://www.w3.org/2000/svg"
   xmlns:sodipodi="http://sodipodi.sourceforge.net/DTD/sodipodi-0.dtd"
   xmlns:inkscape="http://www.inkscape.org/namespaces/inkscape"
   width="210mm"
   height="297mm"
   viewBox="0 0 210 297"
   version="1.1"
   id="svg1617"
   sodipodi:docname="home1.svg"
   inkscape:export-filename="D:\Picture\Inkscape\home1.png"
   inkscape:export-xdpi="96"
   inkscape:export-ydpi="96"
   inkscape:version="0.92.4 (5da689c313, 2019-01-14)">
  <defs
     id="defs1611" />
  <sodipodi:namedview
     id="base"
     pagecolor="#ffffff"
     bordercolor="#666666"
     borderopacity="1.0"
     inkscape:pageopacity="0.0"
     inkscape:pageshadow="2"
     inkscape:zoom="0.7"
     inkscape:cx="168.48434"
     inkscape:cy="517.87435"
     inkscape:document-units="mm"
     inkscape:current-layer="layer1"
     showgrid="false"
     showguides="true"
     inkscape:guide-bbox="true"
     inkscape:window-width="1366"
     inkscape:window-height="705"
     inkscape:window-x="-8"
     inkscape:window-y="-8"
     inkscape:window-maximized="1">
    <sodipodi:guide
       position="145.39462,401.97337"
       orientation="0,1"
       id="guide4369"
       inkscape:locked="false" />
  </sodipodi:namedview>
  <metadata
     id="metadata1614">
    <rdf:RDF>
      <cc:Work
         rdf:about="">
        <dc:format>image/svg+xml</dc:format>
        <dc:type
           rdf:resource="http://purl.org/dc/dcmitype/StillImage" />
      </cc:Work>
    </rdf:RDF>
  </metadata>
  <g
     inkscape:label="Layer 1"
     inkscape:groupmode="layer"
     id="layer1">
    <path
       style="fill:none;stroke:#000000;stroke-width:0.40891543;stroke-linecap:butt;stroke-linejoin:miter;stroke-miterlimit:4;stroke-dasharray:none;stroke-opacity:1"
       d="m 73.385247,232.19373 v 0 0 0"
       id="path876"
       inkscape:connector-curvature="0" />
    <path
       style="opacity:0.01000001;vector-effect:none;fill:#ff8080;fill-opacity:1;fill-rule:evenodd;stroke:#5c0000;stroke-width:4.31945992;stroke-linecap:butt;stroke-linejoin:miter;stroke-miterlimit:4;stroke-dasharray:none;stroke-dashoffset:0;stroke-opacity:1"
       d=""
       id="path4249"
       inkscape:connector-curvature="0"
       transform="scale(0.26458333)" />
    <path
       style="opacity:0.01000001;vector-effect:none;fill:#800000;fill-opacity:1;fill-rule:evenodd;stroke:#5c0000;stroke-width:0.6;stroke-linecap:butt;stroke-linejoin:miter;stroke-miterlimit:4;stroke-dasharray:none;stroke-dashoffset:0;stroke-opacity:1"
       d="m 47.88011,237.62849 c 0.785791,-0.18082 1.922864,-0.17397 2.526836,0.0153 0.603972,0.18921 -0.03894,0.33716 -1.428713,0.32877 -1.389756,-0.008 -1.883916,-0.16319 -1.098123,-0.34401 z"
       id="path4251"
       inkscape:connector-curvature="0"
       inkscape:export-xdpi="96"
       inkscape:export-ydpi="96" />
    <path
       style="fill:none;stroke:#000000;stroke-width:0.6;stroke-linecap:butt;stroke-linejoin:miter;stroke-miterlimit:4;stroke-dasharray:none;stroke-opacity:1"
       d="m 39.337979,217.39725 c 0,0 -5.816526,-11.27708 -1.507983,-19.33213 0,0 10.3405,1.61102 8.186229,5.63855 0,0 2.154271,-1.07402 1.938842,-4.56454 -0.21543,-3.49051 26.497536,9.39757 26.282097,12.88809 0,0 -2.800544,0.537 -2.585114,-8.59205 0,0 -2.154272,-8.59206 -0.646289,-10.74007 1.507999,-2.14803 3.446842,8.86055 2.585131,11.00857 0,0 2.52921,8.94326 1.843721,9.41791 -0.68549,0.47464 -3.12277,4.1769 -11.196253,-1.23409 -8.073491,-5.411 -20.945365,-7.30958 -22.240175,-5.69578 -1.294801,1.61381 -3.732082,3.98704 3.884419,12.53071 0.609313,-0.0949 5.255383,0 1.447123,-3.32253 -3.808242,-3.32253 -2.589602,-3.98704 -1.675621,-5.41099 0.913979,-1.42394 0.990149,3.98705 0.990149,3.98705 l 6.702512,0.56957 c 0,0 20.259885,6.92988 22.849496,5.60085"
       id="path826"
       inkscape:connector-curvature="0"
       inkscape:export-xdpi="96"
       inkscape:export-ydpi="96" />
    <path
       style="fill:none;stroke:#000000;stroke-width:0.6;stroke-linecap:butt;stroke-linejoin:miter;stroke-miterlimit:4;stroke-dasharray:none;stroke-opacity:1"
       d="m 76.196263,220.14637 c 0,0 6.550191,-0.0949 6.854843,-11.96114 0.304668,-11.86621 -0.685481,-21.92877 6.778681,-22.97298 7.464145,-1.04423 17.822613,-6.26536 13.176533,3.32253 0,0 0,13.85974 -2.51347,15.94819"
       id="path834"
       inkscape:connector-curvature="0"
       inkscape:export-xdpi="96"
       inkscape:export-ydpi="96" />
    <path
       style="fill:none;stroke:#000000;stroke-width:0.6;stroke-linecap:butt;stroke-linejoin:miter;stroke-miterlimit:4;stroke-dasharray:none;stroke-opacity:1"
       d="m 100.49285,204.48297 c 0,0 -1.370965,5.69577 -3.503576,5.88565 -2.132607,0.18986 -2.284937,0.18986 -2.284937,0.18986 0,0 6.550173,-11.96114 5.331523,-20.1251 l 2.36113,-5.60085 c 0,0 -6.474018,3.22761 -15.994624,3.89212 -9.520622,0.6645 -9.672944,1.70873 -9.672944,1.70873 0,0 -9.749122,3.13269 -11.272422,-7.78423 -1.5233,-10.91691 8.606642,-12.151 12.643384,-13.19522 4.036741,-1.04423 -9.444454,-0.28479 -9.444454,-0.28479 0,0 2.741933,-11.77129 2.513442,-12.91045 -0.22849,-1.13915 -2.513442,-19.93523 12.795714,-27.33975 0,0 -3.046592,-0.47465 -1.066302,-5.03127 0,0 -8.149661,-7.21466 -7.844992,-11.48649 0.304651,-4.27183 2.894262,-8.25888 7.083333,-9.68284 4.18908,-1.42394 9.368292,-1.329 8.758981,2.37326 l -3.122769,2.46816 c 0,0 -2.132621,-0.28479 -0.990142,2.08846 1.142471,2.37324 1.447132,4.36676 1.447132,4.36676 0,0 -7.768823,-3.32254 -0.83782,6.45522 l -2.284942,2.75296 c 0,0 -6.474022,-3.32254 -7.159511,-9.20818 -0.685481,-5.88563 0.990141,-8.16395 5.026891,-9.49297 4.03675,-1.32902 8.911299,0.47465 9.444445,2.65803 0.533157,2.18339 0.761656,3.32255 3.122761,4.27184 2.361098,0.9493 0.761647,1.99352 0.913975,3.41747 0.15233,1.42394 3.046588,4.93634 0.07613,6.0755 -2.970423,1.13915 -3.503579,1.42394 -3.503579,1.42394 0,0 0.228499,3.32254 -0.07613,3.41747 -0.304657,0.0949 -2.056441,0.37972 -2.056441,0.37972 l 1.447126,0.37972 c 0,0 0.304658,0.56957 -0.15233,1.32902 l -0.685476,2.46816 c 0,0 4.646042,6.0755 3.351241,9.49298"
       id="path836"
       inkscape:connector-curvature="0"
       inkscape:export-xdpi="96"
       inkscape:export-ydpi="96" />
    <path
       style="fill:none;stroke:#000000;stroke-width:0.6;stroke-linecap:butt;stroke-linejoin:miter;stroke-miterlimit:4;stroke-dasharray:none;stroke-opacity:1"
       d="m 94.856667,139.83586 c 0,0 7.007173,9.01831 5.940843,11.67634 -1.066305,2.65804 -1.827955,-4.46169 6.93106,-12.24593 0,0 1.21866,-4.8414 0.99016,-5.98056 -0.2285,-1.13916 4.64607,-3.03775 5.56005,-0.9493 -0.91398,0.66451 -3.50359,1.61381 -3.50359,1.61381 0,0 -0.83782,-6.83495 2.74195,-3.7972 0,0 0.45699,-1.51887 -0.68548,-4.17689 -1.14249,-2.65804 0.60931,-5.98058 1.67562,-5.411 1.06632,0.56958 2.13261,6.36029 2.13261,6.36029 l 5.40772,-1.13916 c 0,0 1.82796,1.8986 -5.8647,5.12621 0,0 0.0761,1.89859 1.2948,1.23408 1.21864,-0.66451 3.35127,4.08197 -5.33154,7.97409"
       id="path842"
       inkscape:connector-curvature="0"
       inkscape:export-xdpi="96"
       inkscape:export-ydpi="96" />
    <path
       style="fill:none;stroke:#000000;stroke-width:0.6;stroke-linecap:butt;stroke-linejoin:miter;stroke-miterlimit:4;stroke-dasharray:none;stroke-opacity:1"
       d="m 112.14617,140.12064 c 0,0 -0.60934,0.28479 1.14248,2.08846 -0.99016,2.46817 -6.01706,9.68282 -6.39789,11.39156 -0.60934,2.08845 -4.11293,7.87916 -7.083386,6.45522 -2.970419,-1.42395 -15.68995,-9.68283 -15.842288,-17.27721 3.275099,4.84142 7.844998,12.05608 7.844998,12.05608 0,0 0.609306,12.72058 -3.198928,13.76481 -3.808251,1.04423 -6.3217,1.32901 -6.3217,1.32901 0,0 0.609328,3.22762 11.120087,1.32902 10.510767,-1.89859 23.763517,1.80366 22.164057,6.36028 0,0 -3.35127,18.60622 -4.79841,18.79609 -0.22849,2.94281 -2.81813,13.95466 -4.1891,13.66987 -1.37097,-0.28479 -4.49376,0.6645 -4.49376,0.6645 0,0 9.59684,6.07551 10.51082,5.60086 0.91399,-0.47466 5.33155,0.0949 2.89427,3.79718 0,0 -21.63089,-6.45521 -21.935555,-3.13268 -0.304649,3.32255 -0.761646,3.32255 -0.761646,3.32255 0,0 4.874542,1.04422 7.921121,0.6645 3.04663,-0.37972 14.80901,-0.0949 14.80901,-0.0949"
       id="path846"
       inkscape:connector-curvature="0"
       sodipodi:nodetypes="cccsccccsccscscsccc"
       inkscape:export-xdpi="96"
       inkscape:export-ydpi="96" />
    <path
       style="fill:none;stroke:#000000;stroke-width:0.6;stroke-linecap:butt;stroke-linejoin:miter;stroke-miterlimit:4;stroke-dasharray:none;stroke-opacity:1"
       d="m 129.26794,220.77573 c 0,0 -0.50892,-2.41032 4.6311,-2.41032 1.06872,-1.07828 3.56239,-2.60058 4.1222,-5.13775 0.55979,-2.53718 0.86514,-5.96238 4.47842,-5.96238 3.6133,0 3.5624,0.44401 3.5624,0.44401 0,0 -5.29233,1.34147 -4.78379,2.1566 1.66516,2.66909 2.64882,0.25835 2.90081,0.19029 0.25446,-0.0634 0.76336,2.02975 1.62853,1.83946 0.86514,-0.19029 2.74812,-0.19029 2.74812,-0.19029 0,0 0.10178,-1.96631 -0.15268,-2.22003 -0.25445,-0.25371 -2.23922,-4.75721 -1.47584,-7.29437 0.76338,-2.53718 4.17308,-9.51439 -0.96693,-20.36081 -0.15267,-2.53717 -2.39189,-13.44701 -0.76338,-14.39845 1.62852,-0.95144 1.62852,-1.0783 1.62852,-1.0783 0,0 -9.61844,-2.72746 -10.83984,-3.74234 -1.22139,-1.01487 -5.08912,-2.47374 -4.27486,3.04462 0.81425,5.51835 4.22397,16.2379 4.52932,16.55505 0.30534,0.31714 4.37664,11.73441 3.5115,22.89797 0,0 8.80419,-3.86918 7.07388,-13.32016 0,0 -6.71764,-17.06247 -3.86774,-30.38264 0,0 5.69983,-4.5669 -16.79412,-4.05948 0,0 -5.59803,0.88802 2.341,-14.20816 0.6107,-1.26859 4.37665,-7.99209 4.37665,-9.00696 0,-1.01487 -14.96204,20.42424 -13.33352,23.84943 l 0.10179,2.53716 8.04082,-1.14172 22.59573,4.94749 c 0,0 9.77112,1.14173 13.43529,-4.44006 l 3.05348,0.25372 c 0,0 3.4606,-2.15659 -8.24439,-16.99906 l -2.03565,-2.53717 -11.19608,-9.89498 c 0,0 -4.27487,-3.29832 2.341,-13.44701 6.61588,-10.14869 2.95171,-27.401455 -5.08912,-19.536225 l -3.25704,6.216075 c 0,0 -8.04082,6.7235 -7.6337,8.11894 0.40713,1.39545 3.66418,-0.12685 4.47844,-10.14868 0,0 -0.30535,-2.537165 0.30534,-3.298325 0.61071,-0.76115 -1.32318,-2.66403 -2.64634,-2.66403 -1.32319,0 -3.15526,-4.44006 -3.25705,-6.34293 -0.10179,-1.90288 -2.64635,2.66403 -0.30535,5.32806 2.341,2.66404 3.96953,5.581775 1.93388,9.514385 -2.03565,3.93263 -4.682,12.05158 -3.5624,12.68587 1.11962,0.63429 6.41232,2.02974 11.19609,-2.53717 l 6.00518,-4.56691 c 0,0 -0.40715,-4.94749 -1.52675,0.76115 0.50891,0.63429 1.42496,3.17147 3.35882,-1.5223 1.93387,-4.69377 0.50892,-9.641255 0.50892,-9.641255 0,0 -2.74814,-4.44005 -4.37665,-1.14173 -1.62853,3.298325 -4.37666,-0.50744 -4.88558,-2.79088 -0.50891,-2.28346 1.01784,-7.61152 1.01784,-7.61152 0,0 -5.49625,-2.79089 -6.92121,-7.10409 0,0 -7.02301,0.88801 -1.22139,8.75324 0.10177,0.76116 -0.20356,3.17147 -0.20356,3.17147 0,0 2.23921,-0.12685 3.76595,3.17147 1.52672,3.29833 5.59803,-3.17147 5.59803,-3.17147 l 0.20356,-2.41031 c 0,0 1.2214,3.29832 5.19092,2.91775 3.96952,-0.38058 4.78378,4.5669 4.78378,4.5669 0,0 0.40712,2.029745 3.15527,3.678905 2.74812,1.64916 -1.62853,5.96236 -1.62853,5.96236 0,0 8.1426,2.28345 7.02299,-5.70864 0,0 -1.62852,-3.171465 -3.56237,-4.820625 -1.93389,-1.64916 -1.01784,-6.97723 -1.01784,-6.97723 0,0 1.1196,-5.45492 -6.81943,-6.7235 0,0 -2.54456,0.25371 -4.47843,-6.08922 -1.93387,-6.342926 -18.1173,-0.38057 -18.21908,4.05948 -0.10179,4.44005 -1.83209,4.31319 -1.01782,4.82062 0.81426,0.50744 4.58021,-0.38057 2.84992,5.70864"
       id="path848"
       inkscape:connector-curvature="0"
       sodipodi:nodetypes="ccsscscccccccccsscccccscccccccccsccccsssscscccsccscccccccscccccccccsc"
       inkscape:export-xdpi="96"
       inkscape:export-ydpi="96" />
    <path
       style="fill:none;stroke:#000000;stroke-width:0.6;stroke-linecap:butt;stroke-linejoin:miter;stroke-miterlimit:4;stroke-dasharray:none;stroke-opacity:1"
       d="m 127.38497,91.887365 c 0,0 2.2901,5.01092 3.66416,6.72351 1.37406,1.712585 -6.92122,14.969315 -4.47843,19.916795 2.44278,4.94749 4.37665,1.2686 4.37665,1.2686 0,0 0.089,4.64863 1.22139,6.85035 0.84819,1.64917 1.79245,5.20121 0.10177,9.5144 0,0 -0.10177,27.52834 2.341,34.37871 2.4428,6.85036 4.27486,18.01391 5.69983,19.02879 1.42496,1.01487 1.22139,11.41728 -1.62853,25.62543 0,0 -3.57755,6.96816 -7.95244,5.71186"
       id="path859"
       inkscape:connector-curvature="0"
       sodipodi:nodetypes="ccccscsccc"
       inkscape:export-xdpi="96"
       inkscape:export-ydpi="96" />
    <path
       style="fill:none;stroke:#000000;stroke-width:0.6;stroke-linecap:butt;stroke-linejoin:miter;stroke-miterlimit:4;stroke-dasharray:none;stroke-opacity:1"
       d="m 133.98442,220.54653 c 0,0 -2.37505,0.80733 -1.58336,0.62792 0.79168,-0.17941 5.75768,-0.3588 5.75768,-0.3588 0,0 3.29833,-1.36996 3.94607,-3.88162 0.64773,-2.51167 1.59572,-2.57697 1.59572,-2.57697 l -0.21592,6.63798 c 0,0 2.30308,-4.66452 2.51899,-7.53502"
       id="path882"
       inkscape:connector-curvature="0"
       sodipodi:nodetypes="csccccc"
       inkscape:export-xdpi="96"
       inkscape:export-ydpi="96" />
    <path
       style="fill:none;stroke:#000000;stroke-width:0.6;stroke-linecap:butt;stroke-linejoin:miter;stroke-miterlimit:4;stroke-dasharray:none;stroke-opacity:1"
       d="m 146.0036,213.46002 v 0 h 0.71971 c 0,0 -0.0399,7.13137 0.13991,7.04167 0.17992,-0.0897 1.88832,-0.0448 1.88832,-0.0448"
       id="path884"
       inkscape:connector-curvature="0"
       sodipodi:nodetypes="ccccc"
       inkscape:export-xdpi="96"
       inkscape:export-ydpi="96" />
    <path
       style="fill:none;stroke:#000000;stroke-width:0.6;stroke-linecap:butt;stroke-linejoin:miter;stroke-miterlimit:4;stroke-dasharray:none;stroke-opacity:1"
       d="m 20.208089,225.28233 c 0,0 -2.97339,3.4114 0,9.13382"
       id="path888"
       inkscape:connector-curvature="0"
       inkscape:export-xdpi="96"
       inkscape:export-ydpi="96" />
    <path
       style="fill:none;stroke:#000000;stroke-width:0.6;stroke-linecap:butt;stroke-linejoin:miter;stroke-miterlimit:4;stroke-dasharray:none;stroke-opacity:1"
       d="m 171.64117,225.28233 c 0,0 4.17478,3.59081 0.40711,9.13382"
       id="path890"
       inkscape:connector-curvature="0"
       inkscape:export-xdpi="96"
       inkscape:export-ydpi="96" />
    <path
       style="fill:none;stroke:#000000;stroke-width:0.6;stroke-linecap:butt;stroke-linejoin:miter;stroke-miterlimit:4;stroke-dasharray:none;stroke-opacity:1"
       d="m 172.4748,234.41615 c 1.8321,-1.90287 17.51202,-16.63144 17.51202,-16.63144 0,0 2.17632,-4.35031 -0.66943,-7.27105"
       id="path900"
       inkscape:connector-curvature="0"
       sodipodi:nodetypes="cc"
       inkscape:export-xdpi="96"
       inkscape:export-ydpi="96" />
    <path
       style="fill:none;stroke:#000000;stroke-width:0.6;stroke-linecap:butt;stroke-linejoin:miter;stroke-miterlimit:4;stroke-dasharray:none;stroke-opacity:1"
       d="M 19.781566,225.28233 H 171.64117"
       id="path944"
       inkscape:connector-curvature="0"
       inkscape:export-xdpi="96"
       inkscape:export-ydpi="96" />
    <path
       style="fill:none;stroke:#000000;stroke-width:0.6;stroke-linecap:butt;stroke-linejoin:miter;stroke-miterlimit:4;stroke-dasharray:none;stroke-opacity:1"
       d="M 20.208089,234.41615 H 172.4748"
       id="path946"
       inkscape:connector-curvature="0"
       inkscape:export-xdpi="96"
       inkscape:export-ydpi="96" />
    <path
       style="opacity:0.01000001;fill:#00c000;fill-opacity:1;stroke:#ce0000;stroke-width:0.6;stroke-miterlimit:4;stroke-dasharray:none;stroke-dashoffset:0;stroke-opacity:1"
       id="path1064"
       sodipodi:type="arc"
       sodipodi:cx="43.041489"
       sodipodi:cy="237.46103"
       sodipodi:rx="4.8398027"
       sodipodi:ry="7.5859246"
       sodipodi:start="0"
       sodipodi:end="0.022084762"
       sodipodi:open="true"
       d="m 47.881291,237.46103 a 4.8398027,7.5859246 0 0 1 -0.0012,0.16752"
       inkscape:export-xdpi="96"
       inkscape:export-ydpi="96" />
    <g
       transform="matrix(0.80602938,0,0,1.0046102,11.656095,-30.107534)"
       id="g1071"
       style="stroke-width:0.66677149;stroke-miterlimit:4;stroke-dasharray:none"
       inkscape:export-xdpi="96"
       inkscape:export-ydpi="96">
      <path
         d="m 71.508125,260.97299 a 7.005249,5.6405902 0 0 1 -0.0017,0.12456"
         sodipodi:open="true"
         sodipodi:end="0.022084698"
         sodipodi:start="0"
         sodipodi:ry="5.6405902"
         sodipodi:rx="7.005249"
         sodipodi:cy="260.97299"
         sodipodi:cx="64.502876"
         sodipodi:type="arc"
         id="path1068"
         style="opacity:0.01000001;fill:#280b0b;fill-opacity:1;stroke:#ce0000;stroke-width:0.66677149;stroke-miterlimit:4;stroke-dasharray:none;stroke-dashoffset:0;stroke-opacity:1" />
    </g>
    <path
       style="opacity:0.01000001;fill:#280b0b;fill-opacity:1;stroke:#ce0000;stroke-width:0.6;stroke-miterlimit:4;stroke-dasharray:none;stroke-dashoffset:0;stroke-opacity:1"
       id="path1073"
       sodipodi:type="arc"
       sodipodi:cx="27.86211"
       sodipodi:cy="230.33206"
       sodipodi:rx="7.9930081"
       sodipodi:ry="11.241792"
       sodipodi:start="0"
       sodipodi:end="0.022084698"
       sodipodi:open="true"
       d="m 35.855118,230.33206 a 7.9930081,11.241792 0 0 1 -0.0019,0.24825"
       inkscape:export-xdpi="96"
       inkscape:export-ydpi="96" />
    <path
       style="fill:none;stroke:#000000;stroke-width:0.6;stroke-linecap:butt;stroke-linejoin:miter;stroke-miterlimit:4;stroke-dasharray:none;stroke-opacity:1"
       d="m 143.97417,228.23446 v 2.01073"
       id="path1436"
       inkscape:connector-curvature="0"
       inkscape:export-xdpi="96"
       inkscape:export-ydpi="96" />
    <path
       style="fill:none;stroke:#000000;stroke-width:0.6;stroke-linecap:butt;stroke-linejoin:miter;stroke-miterlimit:4;stroke-dasharray:none;stroke-opacity:1"
       d="m 149.83793,227.82126 c 0,0 1.38491,0.28151 1.4,2.22964 0.015,1.94812 -1.86667,1.97112 -1.97038,1.97112 -0.1037,0 -10.5001,0 -10.5001,0 0,0 -1.58795,-0.13535 -1.55558,-2.16502 0.0324,-2.02965 1.52965,-2.03574 1.52965,-2.03574 z"
       id="path1559"
       inkscape:connector-curvature="0"
       inkscape:export-xdpi="96"
       inkscape:export-ydpi="96" />
    <path
       style="fill:none;stroke:#000000;stroke-width:0.6;stroke-linecap:butt;stroke-linejoin:miter;stroke-miterlimit:4;stroke-dasharray:none;stroke-opacity:1"
       d="m 143.99443,228.6229 c 0,0 -0.95329,0.08 -0.96246,1.41664 0,0 0.0825,1.211 0.97163,1.27956 0.88913,0.0685 1.03579,-1.24528 0.99913,-1.3024 0,0 0.11918,-1.29098 -1.0083,-1.3938 z"
       id="path1561"
       inkscape:connector-curvature="0"
       sodipodi:nodetypes="ccccc"
       inkscape:export-xdpi="96"
       inkscape:export-ydpi="96" />
    <path
       style="fill:none;stroke:#000000;stroke-width:0.6;stroke-linecap:butt;stroke-linejoin:miter;stroke-miterlimit:4;stroke-dasharray:none;stroke-opacity:1"
       d="M 82.853291,210.50349 H 94.952774"
       id="path1565"
       inkscape:connector-curvature="0"
       inkscape:export-xdpi="96"
       inkscape:export-ydpi="96" />
    <path
       style="fill:none;stroke:#000000;stroke-width:0.6;stroke-linecap:butt;stroke-linejoin:miter;stroke-miterlimit:4;stroke-dasharray:none;stroke-opacity:1"
       d="m 103.99834,210.51458 c 0.95331,0 34.53865,0 34.53865,0"
       id="path1567"
       inkscape:connector-curvature="0"
       inkscape:export-xdpi="96"
       inkscape:export-ydpi="96" />
    <path
       style="fill:none;stroke:#000000;stroke-width:0.6;stroke-linecap:butt;stroke-linejoin:miter;stroke-miterlimit:4;stroke-dasharray:none;stroke-opacity:1"
       d="m 148.56755,210.50116 h 40.70412"
       id="path1569"
       inkscape:connector-curvature="0"
       inkscape:export-xdpi="96"
       inkscape:export-ydpi="96" />
    <path
       style="fill:none;stroke:#000000;stroke-width:0.6;stroke-linecap:butt;stroke-linejoin:miter;stroke-miterlimit:4;stroke-dasharray:none;stroke-opacity:1"
       d="M 20.208089,225.28233 37.723736,212.67822"
       id="path1573"
       inkscape:connector-curvature="0"
       inkscape:export-xdpi="96"
       inkscape:export-ydpi="96" />
    <path
       style="fill:none;stroke:#000000;stroke-width:0.6;stroke-linecap:butt;stroke-linejoin:miter;stroke-miterlimit:4;stroke-dasharray:none;stroke-opacity:1"
       d="m 94.952774,210.50349 -2.152555,9.83275"
       id="path1575"
       inkscape:connector-curvature="0"
       inkscape:export-xdpi="96"
       inkscape:export-ydpi="96" />
  </g>
</svg>
